<svg width="13" height="13" viewBox="0 0 13 13" fill="none" xmlns="http://www.w3.org/2000/svg">
<path d="M12.1877 6.90623V10.1562C12.1877 10.264 12.1449 10.3673 12.0687 10.4435C11.9926 10.5197 11.8892 10.5625 11.7815 10.5625H8.53148C8.42373 10.5625 8.3204 10.5197 8.24421 10.4435C8.16803 10.3673 8.12523 10.264 8.12523 10.1562C8.12523 10.0485 8.16803 9.94516 8.24421 9.86897C8.3204 9.79278 8.42373 9.74998 8.53148 9.74998H10.8009L6.90648 5.85557L5.16265 7.5999C5.12492 7.63768 5.08011 7.66764 5.0308 7.68808C4.98148 7.70853 4.92861 7.71905 4.87523 7.71905C4.82184 7.71905 4.76897 7.70853 4.71966 7.68808C4.67034 7.66764 4.62553 7.63768 4.5878 7.5999L0.931554 3.94365C0.855325 3.86742 0.8125 3.76404 0.8125 3.65623C0.8125 3.54843 0.855325 3.44504 0.931554 3.36881C1.00778 3.29258 1.11117 3.24976 1.21898 3.24976C1.32678 3.24976 1.43017 3.29258 1.5064 3.36881L4.87523 6.73815L6.61905 4.99381C6.65678 4.95604 6.70159 4.92607 6.75091 4.90563C6.80022 4.88519 6.85309 4.87466 6.90648 4.87466C6.95986 4.87466 7.01273 4.88519 7.06205 4.90563C7.11136 4.92607 7.15617 4.95604 7.1939 4.99381L11.3752 9.17565V6.90623C11.3752 6.79849 11.418 6.69516 11.4942 6.61897C11.5704 6.54278 11.6737 6.49998 11.7815 6.49998C11.8892 6.49998 11.9926 6.54278 12.0687 6.61897C12.1449 6.69516 12.1877 6.79849 12.1877 6.90623Z" fill="#FF414B"/>
</svg>
