<svg width="7" height="12" viewBox="0 0 7 12" fill="none" xmlns="http://www.w3.org/2000/svg">
<path d="M1.35354 0.603735L6.35354 5.60374C6.40003 5.65017 6.43691 5.70532 6.46207 5.76602C6.48723 5.82671 6.50018 5.89178 6.50018 5.95749C6.50018 6.02319 6.48723 6.08826 6.46207 6.14896C6.43691 6.20965 6.40003 6.2648 6.35354 6.31124L1.35354 11.3112C1.25972 11.4051 1.13247 11.4578 0.99979 11.4578C0.867108 11.4578 0.73986 11.4051 0.646039 11.3112C0.552219 11.2174 0.499512 11.0902 0.499512 10.9575C0.499512 10.8248 0.552219 10.6976 0.646039 10.6037L5.29291 5.95749L0.646039 1.31124C0.599584 1.26478 0.562734 1.20963 0.537593 1.14893C0.512452 1.08824 0.499512 1.02318 0.499512 0.957485C0.499512 0.891788 0.512452 0.826734 0.537593 0.766037C0.562734 0.70534 0.599584 0.65019 0.646039 0.603735C0.692495 0.55728 0.747645 0.520431 0.808342 0.495289C0.869038 0.470147 0.934092 0.457207 0.99979 0.457207C1.06549 0.457207 1.13054 0.470147 1.19124 0.495289C1.25193 0.520431 1.30708 0.55728 1.35354 0.603735Z" fill="#4D5154"/>
</svg>
